# xmcd CD database file
#
# Track frame offsets:
#	183
#	22455
#	49830
#	66855
#	90628
#	122783
#	160568
#	178243
#	205135
#
# Disc length: 3164 seconds
#
# Revision: 3
# Processed by: cddbd v1.5.1PL2 Copyright (c) Steve Scherf et al.
# Submitted via: CDex 1.51
#
DISCID=7e0c5a09
DTITLE=Dave Holland Quintet - Seeds of Time
DYEAR=1985
DGENRE=Jazz
TTITLE0=Uhren
TTITLE1=Homecoming
TTITLE2=Perspicuity
TTITLE3=Celebration
TTITLE4=World Protection Blues
TTITLE5=Gridlock (Opus 8)
TTITLE6=Walk-a-way
TTITLE7=The Good Doctor
TTITLE8=Double Vision
EXTD=Dave Holland - bass\nSteve Cileman - alto and soprano saxophones, flute\nJulian Priester - trombone\nMarvin "Smitty" Smith - drums, percussion\nKenny Wheeler - trumpet, cornet, pocket trumpet, fluegelhorn YEAR: 1985
EXTT0=
EXTT1=
EXTT2=
EXTT3=
EXTT4=
EXTT5=
EXTT6=
EXTT7=
EXTT8=
PLAYORDER=
